<?xml version="1.0" encoding="UTF-8" standalone="no"?>
<svg
   xmlns:dc="http://purl.org/dc/elements/1.1/"
   xmlns:cc="http://creativecommons.org/ns#"
   xmlns:rdf="http://www.w3.org/1999/02/22-rdf-syntax-ns#"
   xmlns:svg="http://www.w3.org/2000/svg"
   xmlns="http://www.w3.org/2000/svg"
   xmlns:sodipodi="http://sodipodi.sourceforge.net/DTD/sodipodi-0.dtd"
   xmlns:inkscape="http://www.inkscape.org/namespaces/inkscape"
   version="1.1"
   id="svg2"
   xml:space="preserve"
   width="529.33331"
   height="226.66667"
   viewBox="0 0 529.33331 226.66667"
   sodipodi:docname="comparison_methods.eps"><metadata
     id="metadata8"><rdf:RDF><cc:Work
         rdf:about=""><dc:format>image/svg+xml</dc:format><dc:type
           rdf:resource="http://purl.org/dc/dcmitype/StillImage" /></cc:Work></rdf:RDF></metadata><defs
     id="defs6"><clipPath
       clipPathUnits="userSpaceOnUse"
       id="clipPath20"><path
         d="M 0,0 H 3970 V 1700 H 0 Z"
         id="path18" /></clipPath><clipPath
       clipPathUnits="userSpaceOnUse"
       id="clipPath26"><path
         d="M 0,1700.79 H 3968.49 V 0.00390625 H 0 Z"
         id="path24" /></clipPath></defs><sodipodi:namedview
     pagecolor="#ffffff"
     bordercolor="#666666"
     borderopacity="1"
     objecttolerance="10"
     gridtolerance="10"
     guidetolerance="10"
     inkscape:pageopacity="0"
     inkscape:pageshadow="2"
     inkscape:window-width="640"
     inkscape:window-height="480"
     id="namedview4" /><g
     id="g10"
     inkscape:groupmode="layer"
     inkscape:label="ink_ext_XXXXXX"
     transform="matrix(1.3333333,0,0,-1.3333333,0,226.66667)"><g
       id="g12"
       transform="scale(0.1)"><g
         id="g14"><g
           id="g16"
           clip-path="url(#clipPath20)"><g
             id="g22"
             clip-path="url(#clipPath26)"><path
               d="M 0,0.00390625 H 3968.49 V 1700.7939 H 0 Z"
               style="fill:#ffffff;fill-opacity:1;fill-rule:nonzero;stroke:none"
               id="path28" /></g></g></g><path
         d="M 0,0.00390625 H 3968.49 V 1700.7939 H 0 Z"
         style="fill:#ffffff;fill-opacity:1;fill-rule:nonzero;stroke:none"
         id="path30" /><path
         d="m 1849.23,108.637 c 0,0.156 0.06,0.468 0.19,0.933 0.13,0.473 0.3,0.836 0.51,1.098 0.21,0.258 0.5,0.391 0.86,0.391 6.31,0 10.48,0.156 12.51,0.468 1.98,0.52 3.16,1.59 3.52,3.207 l 15.09,60.418 c 0.32,0.938 0.47,1.743 0.47,2.422 0,0.571 -1.3,0.86 -3.91,0.86 h -6.33 c -4.96,0 -8.76,-0.743 -11.42,-2.227 -2.66,-1.488 -4.61,-3.469 -5.86,-5.941 -1.25,-2.477 -2.87,-6.528 -4.85,-12.153 -0.26,-0.679 -0.63,-1.019 -1.1,-1.019 h -1.01 c -0.73,0 -1.1,0.469 -1.1,1.41 l 7.83,22.82 c 0.15,0.676 0.51,1.016 1.08,1.016 h 65.06 c 0.73,0 1.1,-0.496 1.1,-1.485 l -3.67,-22.742 c 0,-0.211 -0.13,-0.433 -0.36,-0.664 -0.23,-0.238 -0.45,-0.355 -0.66,-0.355 h -1.02 c -0.73,0 -1.09,0.469 -1.09,1.41 0.78,5.207 1.17,8.883 1.17,11.019 0,2.606 -0.54,4.575 -1.6,5.903 -1.07,1.328 -2.46,2.16 -4.19,2.5 -1.72,0.34 -3.96,0.508 -6.72,0.508 h -6.5 c -1.97,0 -3.3,-0.168 -3.98,-0.508 -0.68,-0.34 -1.25,-1.422 -1.72,-3.246 l -15.09,-60.418 c -0.06,-0.102 -0.1,-0.231 -0.12,-0.391 -0.02,-0.156 -0.07,-0.34 -0.12,-0.547 0,-0.937 0.55,-1.539 1.64,-1.797 1.93,-0.312 6,-0.468 12.2,-0.468 0.73,0 1.1,-0.496 1.1,-1.489 -0.26,-1.039 -0.46,-1.703 -0.59,-1.988 -0.13,-0.289 -0.53,-0.434 -1.21,-0.434 h -39.02 c -0.73,0 -1.09,0.497 -1.09,1.489"
         style="fill:#262626;fill-opacity:1;fill-rule:nonzero;stroke:none"
         id="path32" /><path
         d="m 1926.04,152.59 v 2.656 c 1.67,0 3.07,0.133 4.19,0.391 1.12,0.261 1.68,0.914 1.68,1.957 v 20.472 c 0,1.36 -0.21,2.336 -0.63,2.934 -0.42,0.598 -1,0.965 -1.76,1.094 -0.75,0.129 -1.91,0.195 -3.48,0.195 v 2.656 l 10.87,0.785 v -7.347 c 0.99,2.187 2.48,3.957 4.45,5.312 1.99,1.356 4.12,2.035 6.42,2.035 3.49,0 6.11,-0.832 7.86,-2.5 1.74,-1.667 2.61,-4.195 2.61,-7.585 v -18.051 c 0,-1.043 0.55,-1.696 1.65,-1.957 1.1,-0.258 2.5,-0.391 4.22,-0.391 v -2.656 h -17.2 v 2.656 c 1.72,0 3.13,0.133 4.22,0.391 1.1,0.261 1.65,0.914 1.65,1.957 v 17.816 c 0,2.453 -0.36,4.457 -1.06,6.02 -0.71,1.562 -2.18,2.343 -4.42,2.343 -2.86,0 -5.24,-1.156 -7.11,-3.476 -1.88,-2.32 -2.82,-4.938 -2.82,-7.856 v -14.847 c 0,-1.043 0.55,-1.696 1.64,-1.957 1.1,-0.258 2.48,-0.391 4.15,-0.391 v -2.656 h -17.13"
         style="fill:#262626;fill-opacity:1;fill-rule:nonzero;stroke:none"
         id="path34" /><path
         d="m 1972.58,161.5 v 16.566 c 0,1.36 -0.2,2.336 -0.62,2.934 -0.42,0.598 -1.01,0.965 -1.76,1.094 -0.76,0.129 -1.92,0.195 -3.48,0.195 v 2.656 l 11.33,0.785 V 161.5 c 0,-1.926 0.15,-3.437 0.43,-4.531 0.29,-1.094 0.89,-1.903 1.81,-2.426 0.91,-0.52 2.35,-0.781 4.33,-0.781 2.71,0 4.86,1.121 6.45,3.359 1.59,2.242 2.39,4.797 2.39,7.66 v 13.285 c 0,1.36 -0.21,2.336 -0.63,2.934 -0.42,0.598 -1,0.965 -1.76,1.094 -0.75,0.129 -1.91,0.195 -3.48,0.195 v 2.656 l 11.34,0.785 v -26.339 c 0,-1.305 0.2,-2.258 0.59,-2.852 0.39,-0.601 0.96,-0.969 1.72,-1.098 0.76,-0.128 1.94,-0.195 3.56,-0.195 v -2.656 l -11.11,-0.86 v 6.329 c -0.94,-1.875 -2.24,-3.399 -3.91,-4.575 -1.67,-1.168 -3.49,-1.754 -5.47,-1.754 -3.6,0 -6.45,0.77 -8.56,2.305 -2.11,1.539 -3.17,4.028 -3.17,7.465"
         style="fill:#262626;fill-opacity:1;fill-rule:nonzero;stroke:none"
         id="path36" /><path
         d="m 2025.95,151.73 c -3.02,0 -5.77,0.793 -8.25,2.383 -2.47,1.59 -4.41,3.688 -5.82,6.293 -1.41,2.602 -2.11,5.391 -2.11,8.364 0,2.968 0.7,5.808 2.11,8.519 1.41,2.711 3.35,4.871 5.82,6.484 2.48,1.618 5.23,2.422 8.25,2.422 2.92,0 5.59,-0.57 8.01,-1.715 2.43,-1.148 3.65,-3.023 3.65,-5.628 0,-0.989 -0.36,-1.836 -1.06,-2.539 -0.71,-0.704 -1.55,-1.055 -2.54,-1.055 -0.99,0 -1.84,0.351 -2.55,1.055 -0.7,0.703 -1.05,1.55 -1.05,2.539 0,0.886 0.27,1.652 0.82,2.308 0.55,0.649 1.23,1.051 2.07,1.211 -1.72,1.094 -4.14,1.641 -7.27,1.641 -2.4,0 -4.33,-0.797 -5.79,-2.387 -1.46,-1.59 -2.49,-3.555 -3.08,-5.898 -0.61,-2.344 -0.91,-4.664 -0.91,-6.957 0,-2.399 0.37,-4.731 1.1,-6.997 0.73,-2.265 1.89,-4.14 3.48,-5.625 1.59,-1.488 3.61,-2.23 6.06,-2.23 2.34,0 4.35,0.73 6.02,2.191 1.67,1.457 2.82,3.356 3.44,5.7 0,0.316 0.19,0.472 0.55,0.472 h 0.94 c 0.15,0 0.28,-0.066 0.39,-0.195 0.1,-0.129 0.16,-0.301 0.16,-0.508 v -0.16 c -0.74,-2.965 -2.22,-5.324 -4.46,-7.07 -2.25,-1.746 -4.91,-2.618 -7.98,-2.618"
         style="fill:#262626;fill-opacity:1;fill-rule:nonzero;stroke:none"
         id="path38" /><path
         d="M 2096.7,79.6367 V 189.688 h 15.09 v -4.375 h -10.63 V 84.0156 h 10.63 v -4.3789 h -15.09"
         style="fill:#262626;fill-opacity:1;fill-rule:nonzero;stroke:none"
         id="path40" /><path
         d="m 2133.07,156.809 c -2.61,0 -5.02,0.652 -7.23,1.957 -2.22,1.3 -3.99,3.086 -5.32,5.351 -1.33,2.266 -2,4.68 -2,7.231 0,2.554 0.67,4.961 2,7.23 1.33,2.266 3.1,4.051 5.32,5.352 2.21,1.304 4.62,1.957 7.23,1.957 2.6,0 5.02,-0.664 7.23,-1.992 2.22,-1.329 3.97,-3.118 5.28,-5.356 1.3,-2.242 1.96,-4.637 1.96,-7.191 0,-2.551 -0.66,-4.95 -1.96,-7.192 -1.31,-2.242 -3.06,-4.023 -5.28,-5.351 -2.21,-1.332 -4.63,-1.996 -7.23,-1.996 z m 0,2.968 c 3.13,0 5.82,1.149 8.09,3.446 2.27,2.289 3.4,5 3.4,8.125 0,1.98 -0.52,3.867 -1.56,5.668 -1.04,1.8 -2.45,3.23 -4.22,4.297 -1.78,1.07 -3.68,1.601 -5.71,1.601 -1.57,0 -3.04,-0.297 -4.42,-0.894 -1.38,-0.602 -2.62,-1.45 -3.71,-2.543 -1.1,-1.094 -1.94,-2.329 -2.55,-3.711 -0.59,-1.383 -0.89,-2.856 -0.89,-4.418 0,-3.125 1.13,-5.836 3.39,-8.125 2.27,-2.297 5,-3.446 8.18,-3.446"
         style="fill:#262626;fill-opacity:1;fill-rule:nonzero;stroke:none"
         id="path42" /><path
         d="m 2183.44,118.949 c 2.51,-3.226 5.65,-5.754 9.42,-7.578 3.78,-1.824 7.68,-2.734 11.69,-2.734 3.44,0 6.61,0.664 9.5,1.988 2.9,1.332 5.42,3.195 7.59,5.594 2.16,2.394 3.83,5.117 5,8.164 1.18,3.047 1.76,6.265 1.76,9.656 0,0.57 0.31,0.859 0.94,0.859 h 1.33 c 0.57,0 0.86,-0.367 0.86,-1.097 0,-3.856 -0.73,-7.555 -2.19,-11.098 -1.46,-3.543 -3.53,-6.668 -6.22,-9.379 -2.68,-2.711 -5.77,-4.82 -9.26,-6.328 -3.49,-1.512 -7.15,-2.266 -10.95,-2.266 -5.27,0 -10.26,1.067 -14.97,3.2 -4.72,2.136 -8.83,5.054 -12.32,8.754 -3.49,3.703 -6.22,7.988 -8.17,12.863 -1.96,4.871 -2.93,9.937 -2.93,15.199 0,5.262 0.97,10.332 2.93,15.203 1.95,4.871 4.68,9.172 8.17,12.895 3.49,3.726 7.6,6.644 12.32,8.754 4.71,2.113 9.7,3.168 14.97,3.168 3.75,0 7.35,-0.821 10.79,-2.461 3.44,-1.645 6.47,-3.95 9.07,-6.918 l 6.34,9.062 c 0.46,0.211 0.73,0.317 0.78,0.317 h 0.78 c 0.26,0 0.47,-0.09 0.62,-0.274 0.16,-0.183 0.24,-0.406 0.24,-0.668 v -29.699 c 0,-0.625 -0.29,-0.937 -0.86,-0.937 h -1.95 c -0.68,0 -1.02,0.312 -1.02,0.937 0,2.086 -0.42,4.445 -1.25,7.074 -0.84,2.633 -1.92,5.121 -3.25,7.465 -1.32,2.344 -2.85,4.402 -4.57,6.172 -4.12,4.012 -8.84,6.019 -14.15,6.019 -4.07,0 -7.95,-0.91 -11.66,-2.734 -3.7,-1.824 -6.82,-4.351 -9.38,-7.582 -2.65,-3.437 -4.51,-7.348 -5.55,-11.726 -1.04,-4.375 -1.56,-9.063 -1.56,-14.067 0,-4.949 0.52,-9.629 1.56,-14.031 1.04,-4.402 2.9,-8.324 5.55,-11.766"
         style="fill:#262626;fill-opacity:1;fill-rule:nonzero;stroke:none"
         id="path44" /><path
         d="m 2240.28,79.6367 v 4.3789 h 10.71 V 185.313 h -10.71 v 4.375 h 15.09 V 79.6367 h -15.09"
         style="fill:#262626;fill-opacity:1;fill-rule:nonzero;stroke:none"
         id="path46" /><path
         d="m 515.453,385.184 h 1321.16 v 1180.54 H 515.453 Z"
         style="fill:#ffffff;fill-opacity:1;fill-rule:nonzero;stroke:none"
         id="path48" /><g
         id="g50"
         transform="scale(1.00021,-0.99979)"><path
           d="M 515.345,-385.264 V -1566.06"
           style="fill:none;stroke:#dfdfdf;stroke-width:5.00335;stroke-linecap:butt;stroke-linejoin:round;stroke-miterlimit:10;stroke-dasharray:none;stroke-opacity:1"
           id="path52" /></g><g
         id="g54"
         transform="scale(1.00021,-0.99979)"><path
           d="M 779.524,-385.264 V -1566.06"
           style="fill:none;stroke:#dfdfdf;stroke-width:5.00335;stroke-linecap:butt;stroke-linejoin:round;stroke-miterlimit:10;stroke-dasharray:none;stroke-opacity:1"
           id="path56" /></g><g
         id="g58"
         transform="scale(1.00021,-0.99979)"><path
           d="M 1043.7,-385.264 V -1566.06"
           style="fill:none;stroke:#dfdfdf;stroke-width:5.00335;stroke-linecap:butt;stroke-linejoin:round;stroke-miterlimit:10;stroke-dasharray:none;stroke-opacity:1"
           id="path60" /></g><g
         id="g62"
         transform="scale(1.00021,-0.99979)"><path
           d="M 1307.87,-385.264 V -1566.06"
           style="fill:none;stroke:#dfdfdf;stroke-width:5.00335;stroke-linecap:butt;stroke-linejoin:round;stroke-miterlimit:10;stroke-dasharray:none;stroke-opacity:1"
           id="path64" /></g><g
         id="g66"
         transform="scale(1.00021,-0.99979)"><path
           d="M 1572.05,-385.264 V -1566.06"
           style="fill:none;stroke:#dfdfdf;stroke-width:5.00335;stroke-linecap:butt;stroke-linejoin:round;stroke-miterlimit:10;stroke-dasharray:none;stroke-opacity:1"
           id="path68" /></g><g
         id="g70"
         transform="scale(1.00021,-0.99979)"><path
           d="M 1836.23,-385.264 V -1566.06"
           style="fill:none;stroke:#dfdfdf;stroke-width:5.00335;stroke-linecap:butt;stroke-linejoin:round;stroke-miterlimit:10;stroke-dasharray:none;stroke-opacity:1"
           id="path72" /></g><g
         id="g74"
         transform="scale(1.00021,-0.99979)"><path
           d="M 1836.23,-385.264 H 515.345"
           style="fill:none;stroke:#dfdfdf;stroke-width:5.00335;stroke-linecap:butt;stroke-linejoin:round;stroke-miterlimit:10;stroke-dasharray:none;stroke-opacity:1"
           id="path76" /></g><g
         id="g78"
         transform="scale(1.00021,-0.99979)"><path
           d="M 1836.23,-722.636 H 515.345"
           style="fill:none;stroke:#dfdfdf;stroke-width:5.00335;stroke-linecap:butt;stroke-linejoin:round;stroke-miterlimit:10;stroke-dasharray:none;stroke-opacity:1"
           id="path80" /></g><g
         id="g82"
         transform="scale(1.00021,-0.99979)"><path
           d="M 1836.23,-1060 H 515.345"
           style="fill:none;stroke:#dfdfdf;stroke-width:5.00335;stroke-linecap:butt;stroke-linejoin:round;stroke-miterlimit:10;stroke-dasharray:none;stroke-opacity:1"
           id="path84" /></g><g
         id="g86"
         transform="scale(1.00021,-0.99979)"><path
           d="M 1836.23,-1397.37 H 515.345"
           style="fill:none;stroke:#dfdfdf;stroke-width:5.00335;stroke-linecap:butt;stroke-linejoin:round;stroke-miterlimit:10;stroke-dasharray:none;stroke-opacity:1"
           id="path88" /></g><g
         id="g90"
         transform="scale(1.00021,-0.99979)"><path
           d="M 515.345,-385.264 H 1836.23"
           style="fill:none;stroke:#262626;stroke-width:5.00335;stroke-linecap:square;stroke-linejoin:round;stroke-miterlimit:10;stroke-dasharray:none;stroke-opacity:1"
           id="path92" /></g><g
         id="g94"
         transform="scale(1.00021,-0.99979)"><path
           d="M 515.345,-1566.06 H 1836.23"
           style="fill:none;stroke:#262626;stroke-width:5.00335;stroke-linecap:square;stroke-linejoin:round;stroke-miterlimit:10;stroke-dasharray:none;stroke-opacity:1"
           id="path96" /></g><g
         id="g98"
         transform="scale(1.00021,-0.99979)"><path
           d="m 515.345,-385.264 v -13.21"
           style="fill:none;stroke:#262626;stroke-width:5.00335;stroke-linecap:square;stroke-linejoin:round;stroke-miterlimit:10;stroke-dasharray:none;stroke-opacity:1"
           id="path100" /></g><g
         id="g102"
         transform="scale(1.00021,-0.99979)"><path
           d="m 779.524,-385.264 v -13.21"
           style="fill:none;stroke:#262626;stroke-width:5.00335;stroke-linecap:square;stroke-linejoin:round;stroke-miterlimit:10;stroke-dasharray:none;stroke-opacity:1"
           id="path104" /></g><g
         id="g106"
         transform="scale(1.00021,-0.99979)"><path
           d="m 1043.7,-385.264 v -13.21"
           style="fill:none;stroke:#262626;stroke-width:5.00335;stroke-linecap:square;stroke-linejoin:round;stroke-miterlimit:10;stroke-dasharray:none;stroke-opacity:1"
           id="path108" /></g><g
         id="g110"
         transform="scale(1.00021,-0.99979)"><path
           d="m 1307.87,-385.264 v -13.21"
           style="fill:none;stroke:#262626;stroke-width:5.00335;stroke-linecap:square;stroke-linejoin:round;stroke-miterlimit:10;stroke-dasharray:none;stroke-opacity:1"
           id="path112" /></g><g
         id="g114"
         transform="scale(1.00021,-0.99979)"><path
           d="m 1572.05,-385.264 v -13.21"
           style="fill:none;stroke:#262626;stroke-width:5.00335;stroke-linecap:square;stroke-linejoin:round;stroke-miterlimit:10;stroke-dasharray:none;stroke-opacity:1"
           id="path116" /></g><g
         id="g118"
         transform="scale(1.00021,-0.99979)"><path
           d="m 1836.23,-385.264 v -13.21"
           style="fill:none;stroke:#262626;stroke-width:5.00335;stroke-linecap:square;stroke-linejoin:round;stroke-miterlimit:10;stroke-dasharray:none;stroke-opacity:1"
           id="path120" /></g><g
         id="g122"
         transform="scale(1.00021,-0.99979)"><path
           d="m 515.345,-1566.06 v 13.21"
           style="fill:none;stroke:#262626;stroke-width:5.00335;stroke-linecap:square;stroke-linejoin:round;stroke-miterlimit:10;stroke-dasharray:none;stroke-opacity:1"
           id="path124" /></g><g
         id="g126"
         transform="scale(1.00021,-0.99979)"><path
           d="m 779.524,-1566.06 v 13.21"
           style="fill:none;stroke:#262626;stroke-width:5.00335;stroke-linecap:square;stroke-linejoin:round;stroke-miterlimit:10;stroke-dasharray:none;stroke-opacity:1"
           id="path128" /></g><g
         id="g130"
         transform="scale(1.00021,-0.99979)"><path
           d="m 1043.7,-1566.06 v 13.21"
           style="fill:none;stroke:#262626;stroke-width:5.00335;stroke-linecap:square;stroke-linejoin:round;stroke-miterlimit:10;stroke-dasharray:none;stroke-opacity:1"
           id="path132" /></g><g
         id="g134"
         transform="scale(1.00021,-0.99979)"><path
           d="m 1307.87,-1566.06 v 13.21"
           style="fill:none;stroke:#262626;stroke-width:5.00335;stroke-linecap:square;stroke-linejoin:round;stroke-miterlimit:10;stroke-dasharray:none;stroke-opacity:1"
           id="path136" /></g><g
         id="g138"
         transform="scale(1.00021,-0.99979)"><path
           d="m 1572.05,-1566.06 v 13.21"
           style="fill:none;stroke:#262626;stroke-width:5.00335;stroke-linecap:square;stroke-linejoin:round;stroke-miterlimit:10;stroke-dasharray:none;stroke-opacity:1"
           id="path140" /></g><g
         id="g142"
         transform="scale(1.00021,-0.99979)"><path
           d="m 1836.23,-1566.06 v 13.21"
           style="fill:none;stroke:#262626;stroke-width:5.00335;stroke-linecap:square;stroke-linejoin:round;stroke-miterlimit:10;stroke-dasharray:none;stroke-opacity:1"
           id="path144" /></g><g
         id="g146"
         transform="scale(10)"><text
           transform="matrix(1,0,0,-0.99958018,44.7895,26.2121)"
           style="font-variant:normal;font-weight:normal;font-size:9.00792px;font-family:Helvetica;-inkscape-font-specification:Helvetica;writing-mode:lr-tb;fill:#262626;fill-opacity:1;fill-rule:nonzero;stroke:none"
           id="text150"><tspan
             x="0 2.9996378 8.0080423 26.423477 29.423115 34.431519 52.846954 55.846592 60.854996 79.269981 82.269623 87.278023 108.19577 111.1954 136.12042"
             y="0"
             sodipodi:role="line"
             id="tspan148">-25-20-15-10-50</tspan></text></g><g
         id="g152"
         transform="scale(1.00021,-0.99979)"><path
           d="M 515.345,-385.264 V -1566.06"
           style="fill:none;stroke:#262626;stroke-width:5.00335;stroke-linecap:square;stroke-linejoin:round;stroke-miterlimit:10;stroke-dasharray:none;stroke-opacity:1"
           id="path154" /></g><g
         id="g156"
         transform="scale(1.00021,-0.99979)"><path
           d="M 1836.23,-385.264 V -1566.06"
           style="fill:none;stroke:#262626;stroke-width:5.00335;stroke-linecap:square;stroke-linejoin:round;stroke-miterlimit:10;stroke-dasharray:none;stroke-opacity:1"
           id="path158" /></g><g
         id="g160"
         transform="scale(1.00021,-0.99979)"><path
           d="m 515.345,-385.264 h 13.208"
           style="fill:none;stroke:#262626;stroke-width:5.00335;stroke-linecap:square;stroke-linejoin:round;stroke-miterlimit:10;stroke-dasharray:none;stroke-opacity:1"
           id="path162" /></g><g
         id="g164"
         transform="scale(1.00021,-0.99979)"><path
           d="m 515.345,-722.636 h 13.208"
           style="fill:none;stroke:#262626;stroke-width:5.00335;stroke-linecap:square;stroke-linejoin:round;stroke-miterlimit:10;stroke-dasharray:none;stroke-opacity:1"
           id="path166" /></g><g
         id="g168"
         transform="scale(1.00021,-0.99979)"><path
           d="m 515.345,-1060 h 13.208"
           style="fill:none;stroke:#262626;stroke-width:5.00335;stroke-linecap:square;stroke-linejoin:round;stroke-miterlimit:10;stroke-dasharray:none;stroke-opacity:1"
           id="path170" /></g><g
         id="g172"
         transform="scale(1.00021,-0.99979)"><path
           d="m 515.345,-1397.37 h 13.208"
           style="fill:none;stroke:#262626;stroke-width:5.00335;stroke-linecap:square;stroke-linejoin:round;stroke-miterlimit:10;stroke-dasharray:none;stroke-opacity:1"
           id="path174" /></g><g
         id="g176"
         transform="scale(1.00021,-0.99979)"><path
           d="m 1836.23,-385.264 h -13.21"
           style="fill:none;stroke:#262626;stroke-width:5.00335;stroke-linecap:square;stroke-linejoin:round;stroke-miterlimit:10;stroke-dasharray:none;stroke-opacity:1"
           id="path178" /></g><g
         id="g180"
         transform="scale(1.00021,-0.99979)"><path
           d="m 1836.23,-722.636 h -13.21"
           style="fill:none;stroke:#262626;stroke-width:5.00335;stroke-linecap:square;stroke-linejoin:round;stroke-miterlimit:10;stroke-dasharray:none;stroke-opacity:1"
           id="path182" /></g><g
         id="g184"
         transform="scale(1.00021,-0.99979)"><path
           d="m 1836.23,-1060 h -13.21"
           style="fill:none;stroke:#262626;stroke-width:5.00335;stroke-linecap:square;stroke-linejoin:round;stroke-miterlimit:10;stroke-dasharray:none;stroke-opacity:1"
           id="path186" /></g><g
         id="g188"
         transform="scale(1.00021,-0.99979)"><path
           d="m 1836.23,-1397.37 h -13.21"
           style="fill:none;stroke:#262626;stroke-width:5.00335;stroke-linecap:square;stroke-linejoin:round;stroke-miterlimit:10;stroke-dasharray:none;stroke-opacity:1"
           id="path190" /></g><g
         id="g192"
         transform="scale(10)"><text
           transform="matrix(1,0,0,-0.99958018,43.2383,34.766)"
           style="font-variant:normal;font-weight:normal;font-size:9.00792px;font-family:Helvetica;-inkscape-font-specification:Helvetica;writing-mode:lr-tb;fill:#262626;fill-opacity:1;fill-rule:nonzero;stroke:none"
           id="text202"><tspan
             x="0"
             y="0"
             id="tspan194">0</tspan><tspan
             x="-7.5066414 -2.4982369 0.0059652599"
             y="-33.744267"
             sodipodi:role="line"
             id="tspan196">0.1</tspan><tspan
             x="-7.5066414 -2.4982369 0.0059652599"
             y="-67.488136"
             sodipodi:role="line"
             id="tspan198">0.2</tspan><tspan
             x="-7.5066414 -2.4982369 0.0059652599"
             y="-101.2324"
             sodipodi:role="line"
             id="tspan200">0.3</tspan></text></g><path
         d="m 298.914,833.742 c 0,-3.23 -0.781,-6.109 -2.348,-8.64 -1.562,-2.528 -3.675,-4.481 -6.328,-5.86 -2.66,-1.383 -5.582,-2.074 -8.758,-2.074 -3.39,0 -6.976,0.77 -10.757,2.309 -3.778,1.535 -7.219,3.632 -10.317,6.293 -3.105,2.656 -5.582,5.679 -7.433,9.066 -1.848,3.387 -2.77,6.852 -2.77,10.394 v 27.75 c 0,0.727 0.246,1.364 0.738,1.911 0.497,0.547 1.184,0.82 2.075,0.82 1.043,0 1.968,-0.391 2.777,-1.172 0.805,-0.777 1.211,-1.715 1.211,-2.809 v -13.367 c 3.18,2.086 7.008,3.125 11.492,3.125 3.652,0 7.274,-0.715 10.871,-2.148 3.598,-1.434 6.867,-3.426 9.813,-5.981 2.945,-2.554 5.3,-5.511 7.078,-8.871 1.769,-3.363 2.656,-6.945 2.656,-10.746 z m -2.891,0.156 c 0,4.012 -1.578,7.567 -4.734,10.668 -3.156,3.102 -6.996,5.473 -11.531,7.114 -4.539,1.64 -8.735,2.461 -12.59,2.461 -3.129,0 -5.602,-0.871 -7.43,-2.618 -1.824,-1.746 -2.734,-4.183 -2.734,-7.304 0,-4.223 1.43,-7.832 4.297,-10.828 2.871,-2.996 6.48,-5.239 10.828,-6.723 4.355,-1.488 8.539,-2.23 12.551,-2.23 3.133,0 5.804,0.835 8.019,2.5 2.215,1.667 3.324,3.988 3.324,6.96"
         style="fill:#262626;fill-opacity:1;fill-rule:nonzero;stroke:none"
         id="path204" /><path
         d="m 252.203,882.285 h -2.656 c 0,1.668 -0.133,3.063 -0.391,4.18 -0.261,1.121 -0.914,1.683 -1.957,1.683 h -20.484 c -1.356,0 -2.336,-0.21 -2.934,-0.625 -0.597,-0.418 -0.965,-1.003 -1.093,-1.761 -0.129,-0.754 -0.196,-1.914 -0.196,-3.477 h -2.656 l -0.789,10.863 h 7.351 c -2.187,0.993 -3.957,2.477 -5.312,4.454 -1.359,1.98 -2.039,4.117 -2.039,6.414 0,3.492 0.836,6.109 2.504,7.851 1.668,1.746 4.195,2.617 7.586,2.617 h 18.062 c 1.043,0 1.696,0.547 1.957,1.645 0.258,1.094 0.391,2.5 0.391,4.219 h 2.656 v -17.196 h -2.656 c 0,1.719 -0.133,3.125 -0.391,4.223 -0.261,1.094 -0.914,1.641 -1.957,1.641 h -17.828 c -2.449,0 -4.457,-0.352 -6.019,-1.055 -1.563,-0.703 -2.348,-2.176 -2.348,-4.418 0,-2.863 1.16,-5.234 3.48,-7.113 2.321,-1.871 4.942,-2.809 7.86,-2.809 h 14.855 c 1.043,0 1.696,0.547 1.957,1.641 0.258,1.093 0.391,2.472 0.391,4.14 h 2.656 v -17.117"
         style="fill:#262626;fill-opacity:1;fill-rule:nonzero;stroke:none"
         id="path206" /><path
         d="m 243.289,928.805 h -16.574 c -1.356,0 -2.336,-0.207 -2.934,-0.625 -0.597,-0.418 -0.965,-1.004 -1.093,-1.762 -0.129,-0.754 -0.196,-1.914 -0.196,-3.477 h -2.656 l -0.789,11.332 h 24.242 c 1.93,0 3.441,0.145 4.535,0.43 1.094,0.289 1.903,0.887 2.426,1.801 0.523,0.91 0.781,2.355 0.781,4.336 0,2.711 -1.121,4.859 -3.363,6.449 -2.242,1.586 -4.793,2.383 -7.66,2.383 h -13.293 c -1.356,0 -2.336,-0.211 -2.934,-0.625 -0.597,-0.418 -0.965,-1.004 -1.093,-1.758 -0.129,-0.758 -0.196,-1.914 -0.196,-3.476 h -2.656 l -0.789,11.332 h 26.355 c 1.305,0 2.254,0.195 2.852,0.582 0.601,0.394 0.965,0.968 1.098,1.722 0.128,0.758 0.195,1.942 0.195,3.555 h 2.656 l 0.86,-11.098 h -6.329 c 1.875,-0.937 3.399,-2.238 4.575,-3.906 1.168,-1.668 1.754,-3.492 1.754,-5.473 0,-3.597 -0.77,-6.449 -2.305,-8.558 -1.539,-2.11 -4.028,-3.164 -7.469,-3.164"
         style="fill:#262626;fill-opacity:1;fill-rule:nonzero;stroke:none"
         id="path208" /><path
         d="m 253.063,982.156 c 0,-3.027 -0.793,-5.773 -2.383,-8.25 -1.59,-2.472 -3.688,-4.414 -6.293,-5.824 -2.606,-1.406 -5.395,-2.109 -8.367,-2.109 -2.973,0 -5.813,0.703 -8.524,2.109 -2.711,1.41 -4.875,3.352 -6.492,5.824 -1.613,2.477 -2.422,5.223 -2.422,8.25 0,2.918 0.574,5.586 1.719,8.008 1.148,2.426 3.023,3.637 5.629,3.637 0.992,0 1.84,-0.352 2.543,-1.055 0.703,-0.703 1.054,-1.551 1.054,-2.543 0,-0.988 -0.351,-1.836 -1.054,-2.539 -0.703,-0.703 -1.551,-1.059 -2.543,-1.059 -0.883,0 -1.653,0.274 -2.309,0.821 -0.648,0.551 -1.051,1.238 -1.211,2.074 -1.094,-1.719 -1.64,-4.141 -1.64,-7.27 0,-2.398 0.796,-4.324 2.386,-5.781 1.59,-1.461 3.555,-2.492 5.903,-3.09 2.343,-0.597 4.664,-0.898 6.961,-0.898 2.398,0 4.73,0.363 6.996,1.094 2.269,0.73 4.144,1.89 5.629,3.476 1.488,1.594 2.23,3.614 2.23,6.059 0,2.344 -0.73,4.351 -2.191,6.019 -1.457,1.668 -3.36,2.813 -5.704,3.442 -0.312,0 -0.472,0.179 -0.472,0.543 v 0.941 c 0,0.153 0.066,0.285 0.195,0.391 0.133,0.105 0.301,0.156 0.508,0.156 h 0.16 c 2.969,-0.73 5.328,-2.219 7.074,-4.457 1.746,-2.242 2.618,-4.898 2.618,-7.969"
         style="fill:#262626;fill-opacity:1;fill-rule:nonzero;stroke:none"
         id="path210" /><path
         d="M 325.188,1052.87 H 215.09 v 15.08 h 4.379 v -10.63 h 101.34 v 10.63 h 4.379 v -15.08"
         style="fill:#262626;fill-opacity:1;fill-rule:nonzero;stroke:none"
         id="path212" /><path
         d="m 277.254,1071.71 h -6.805 v 29.08 h 6.805 v -29.08"
         style="fill:#262626;fill-opacity:1;fill-rule:nonzero;stroke:none"
         id="path214" /><path
         d="m 325.188,1109.57 h -4.379 v 10.71 h -101.34 v -10.71 h -4.379 v 15.09 h 110.098 v -15.09"
         style="fill:#262626;fill-opacity:1;fill-rule:nonzero;stroke:none"
         id="path216" /><g
         id="g218"
         transform="scale(1.00021,-0.99979)"><path
           d="m 515.345,-1442.65 52.837,42.68 52.832,42.7 52.837,42.71 52.836,42.72 52.837,42.73 52.833,42.74 52.836,42.74 52.837,42.76 52.832,42.76 52.838,42.78 52.84,42.774 52.83,42.783 52.83,42.79 52.84,42.798 52.83,42.802 52.84,42.814 52.84,42.813 52.83,42.826 52.84,42.821 52.83,42.829 52.84,42.842 52.83,42.837 52.84,42.845 52.84,42.848"
           style="fill:none;stroke:#1ae61a;stroke-width:15.0101;stroke-linecap:butt;stroke-linejoin:round;stroke-miterlimit:10;stroke-dasharray:none;stroke-opacity:1"
           id="path220" /></g><g
         id="g222"
         transform="scale(1.00021,-0.99979)"><path
           d="m 515.345,-1444.4 52.837,42.86 52.832,42.85 52.837,42.86 52.836,42.85 52.837,42.85 52.833,42.85 52.836,42.86 52.837,42.85 52.832,42.86 52.838,42.85 52.84,42.851 52.83,42.857 52.83,42.853 52.84,42.852 52.83,42.853 52.84,42.857 52.84,42.852 52.83,42.853 52.84,42.853 52.83,42.857 52.84,42.852 52.83,42.853 52.84,42.853 52.84,42.856"
           style="fill:none;stroke:#ff00ff;stroke-width:15.0101;stroke-linecap:butt;stroke-linejoin:bevel;stroke-miterlimit:10;stroke-dasharray:60.0402, 60.0402;stroke-dashoffset:0;stroke-opacity:1"
           id="path224" /></g><path
         d="m 1005.88,1185.55 h 750.66 v 300.137 h -750.66 z"
         style="fill:#ffffff;fill-opacity:1;fill-rule:nonzero;stroke:none"
         id="path226" /><path
         d="m 1385.85,1376.38 c -4.33,0 -8.29,1.17 -11.89,3.51 -3.6,2.35 -6.39,5.43 -8.37,9.27 -1.98,3.82 -2.97,7.9 -2.97,12.23 0,4.43 1.08,8.56 3.25,12.39 2.16,3.83 5.11,6.86 8.83,9.1 3.73,2.24 7.84,3.36 12.32,3.36 2.66,0 5.2,-0.56 7.62,-1.68 2.43,-1.12 4.5,-2.69 6.22,-4.72 v 22.89 c 0,1.98 -0.29,3.41 -0.86,4.3 -0.57,0.89 -1.41,1.42 -2.5,1.6 -1.1,0.19 -2.82,0.28 -5.16,0.28 v 3.91 l 16.26,1.17 v -66.36 c 0,-1.93 0.3,-3.33 0.9,-4.22 0.6,-0.89 1.45,-1.42 2.54,-1.6 1.1,-0.18 2.82,-0.28 5.16,-0.28 v -3.9 l -16.65,-1.25 v 6.95 c -1.88,-2.19 -4.14,-3.9 -6.76,-5.12 -2.64,-1.22 -5.29,-1.83 -7.94,-1.83 z m -11.26,10.78 c 1.25,-2.39 2.93,-4.31 5.04,-5.74 2.11,-1.44 4.39,-2.15 6.84,-2.15 3.03,0 5.82,0.88 8.37,2.65 2.55,1.78 4.46,4.04 5.71,6.81 v 26.41 c -0.84,1.62 -1.92,3.06 -3.25,4.34 -1.33,1.28 -2.8,2.25 -4.42,2.93 -1.61,0.68 -3.33,1.02 -5.16,1.02 -3.85,0 -6.94,-1.08 -9.26,-3.25 -2.32,-2.16 -3.95,-4.93 -4.89,-8.32 -0.94,-3.39 -1.41,-6.9 -1.41,-10.55 0,-2.97 0.16,-5.55 0.47,-7.74 0.32,-2.19 0.97,-4.32 1.96,-6.41"
         style="fill:#000000;fill-opacity:1;fill-rule:nonzero;stroke:none"
         id="path228" /><path
         d="m 1423.48,1377.63 v 3.9 c 2.5,0 4.56,0.2 6.18,0.59 1.61,0.39 2.42,1.34 2.42,2.85 v 30.09 c 0,2.82 -0.55,4.55 -1.64,5.21 -1.1,0.64 -3.24,0.97 -6.42,0.97 v 3.83 l 15.8,1.17 v -41.27 c 0,-1.51 0.7,-2.46 2.11,-2.85 1.41,-0.39 3.28,-0.59 5.63,-0.59 v -3.9 z m 4.69,67.53 c 0,1.61 0.61,3.03 1.83,4.26 1.23,1.22 2.63,1.83 4.19,1.83 1.04,0 2.04,-0.27 3.01,-0.82 0.96,-0.54 1.72,-1.3 2.26,-2.26 0.56,-0.97 0.83,-1.97 0.83,-3.01 0,-1.57 -0.61,-2.96 -1.84,-4.18 -1.23,-1.23 -2.65,-1.84 -4.26,-1.84 -1.56,0 -2.96,0.61 -4.19,1.84 -1.22,1.22 -1.83,2.61 -1.83,4.18"
         style="fill:#000000;fill-opacity:1;fill-rule:nonzero;stroke:none"
         id="path230" /><path
         d="m 1453.51,1377.63 v 3.9 c 2.56,0 4.63,0.2 6.22,0.59 1.59,0.39 2.38,1.34 2.38,2.85 v 30.09 c 0,1.93 -0.28,3.34 -0.86,4.23 -0.57,0.88 -1.42,1.43 -2.54,1.64 -1.12,0.21 -2.85,0.31 -5.2,0.31 v 3.83 l 15.79,1.17 v -10.7 c 1.21,3.17 2.89,5.75 5.05,7.73 2.16,1.98 4.81,2.97 7.94,2.97 2.19,0 4.14,-0.63 5.86,-1.91 1.72,-1.28 2.58,-2.99 2.58,-5.12 0,-1.3 -0.47,-2.45 -1.41,-3.44 -0.93,-0.99 -2.11,-1.49 -3.52,-1.49 -1.35,0 -2.51,0.49 -3.47,1.45 -0.97,0.96 -1.45,2.12 -1.45,3.48 0,1.98 0.71,3.38 2.11,4.22 h -0.7 c -2.98,0 -5.4,-1.08 -7.27,-3.25 -1.88,-2.16 -3.21,-4.83 -3.99,-8.01 -0.78,-3.18 -1.17,-6.22 -1.17,-9.14 v -18.06 c 0,-2.29 3.57,-3.44 10.71,-3.44 v -3.9 h -27.06"
         style="fill:#000000;fill-opacity:1;fill-rule:nonzero;stroke:none"
         id="path232" /><path
         d="m 1521.26,1376.38 c -4.48,0 -8.6,1.17 -12.35,3.51 -3.75,2.35 -6.7,5.49 -8.84,9.42 -2.14,3.94 -3.21,8.09 -3.21,12.47 0,4.27 0.98,8.35 2.94,12.23 1.95,3.88 4.68,7.01 8.17,9.38 3.49,2.37 7.4,3.56 11.73,3.56 3.34,0 6.25,-0.56 8.76,-1.68 2.5,-1.12 4.56,-2.69 6.17,-4.7 1.62,-2 2.83,-4.37 3.64,-7.11 0.81,-2.73 1.21,-5.71 1.21,-8.95 0,-0.99 -0.36,-1.48 -1.09,-1.48 h -31.91 v -1.17 c 0,-6.1 1.23,-11.34 3.68,-15.72 2.45,-4.37 6.47,-6.56 12.04,-6.56 2.25,0 4.33,0.51 6.26,1.52 1.93,1.02 3.59,2.43 5,4.22 1.41,1.8 2.37,3.72 2.9,5.75 0.05,0.26 0.18,0.48 0.39,0.66 0.2,0.18 0.44,0.28 0.7,0.28 h 0.94 c 0.73,0 1.09,-0.47 1.09,-1.41 -1.04,-4.12 -3.28,-7.52 -6.73,-10.2 -3.43,-2.68 -7.27,-4.02 -11.49,-4.02 z m -14.62,29.39 h 25.1 c 0,2.75 -0.39,5.56 -1.17,8.4 -0.78,2.83 -2.08,5.19 -3.87,7.07 -1.8,1.87 -4.13,2.81 -7,2.81 -4.17,0 -7.39,-1.94 -9.66,-5.82 -2.26,-3.88 -3.4,-8.04 -3.4,-12.46"
         style="fill:#000000;fill-opacity:1;fill-rule:nonzero;stroke:none"
         id="path234" /><path
         d="m 1570.2,1376.38 c -4.49,0 -8.53,1.16 -12.13,3.47 -3.59,2.32 -6.43,5.41 -8.52,9.27 -2.09,3.85 -3.13,7.94 -3.13,12.27 0,4.32 1.03,8.48 3.09,12.46 2.06,3.99 4.9,7.17 8.53,9.54 3.62,2.37 7.67,3.56 12.16,3.56 4.27,0 8.18,-0.84 11.73,-2.51 3.54,-1.67 5.31,-4.42 5.31,-8.28 0,-1.46 -0.52,-2.71 -1.56,-3.75 -1.05,-1.04 -2.3,-1.56 -3.75,-1.56 -1.47,0 -2.7,0.52 -3.72,1.56 -1.02,1.04 -1.53,2.29 -1.53,3.75 0,1.3 0.41,2.42 1.21,3.36 0.81,0.94 1.84,1.53 3.09,1.8 -2.55,1.61 -6.12,2.42 -10.71,2.42 -3.49,0 -6.32,-1.16 -8.48,-3.47 -2.16,-2.32 -3.68,-5.2 -4.54,-8.64 -0.86,-3.44 -1.29,-6.86 -1.29,-10.24 0,-3.55 0.54,-6.97 1.61,-10.28 1.07,-3.31 2.77,-6.06 5.12,-8.25 2.34,-2.18 5.29,-3.28 8.83,-3.28 3.5,0 6.46,1.07 8.88,3.21 2.42,2.13 4.08,4.92 4.96,8.36 0,0.47 0.29,0.7 0.86,0.7 h 1.33 c 0.26,0 0.47,-0.1 0.63,-0.31 0.16,-0.21 0.23,-0.44 0.23,-0.7 v -0.32 c -1.09,-4.32 -3.28,-7.76 -6.57,-10.31 -3.28,-2.56 -7.16,-3.83 -11.64,-3.83"
         style="fill:#000000;fill-opacity:1;fill-rule:nonzero;stroke:none"
         id="path236" /><path
         d="m 1602.94,1390.84 v 30.4 h -9.15 v 2.81 c 4.8,0 8.33,2.24 10.6,6.72 2.26,4.49 3.4,9.33 3.4,14.54 h 3.12 v -20.24 h 15.57 v -3.83 h -15.57 v -30.17 c 0,-3.07 0.51,-5.76 1.53,-8.05 1.02,-2.29 2.86,-3.44 5.52,-3.44 2.5,0 4.31,1.21 5.43,3.63 1.12,2.43 1.68,5.05 1.68,7.86 v 6.48 h 3.2 v -6.71 c 0,-2.3 -0.43,-4.57 -1.29,-6.8 -0.86,-2.25 -2.11,-4.08 -3.75,-5.51 -1.64,-1.44 -3.64,-2.15 -5.98,-2.15 -4.43,0 -7.92,1.31 -10.48,3.94 -2.55,2.63 -3.83,6.14 -3.83,10.52"
         style="fill:#000000;fill-opacity:1;fill-rule:nonzero;stroke:none"
         id="path238" /><g
         id="g240"
         transform="scale(1.00021,-0.99979)"><path
           d="m 1035.71,-1404.34 h 300.42"
           style="fill:none;stroke:#1ae61a;stroke-width:15.0101;stroke-linecap:butt;stroke-linejoin:round;stroke-miterlimit:10;stroke-dasharray:none;stroke-opacity:1"
           id="path242" /></g><path
         d="m 1362.31,1240.79 v 3.91 c 2.5,0 4.56,0.19 6.17,0.59 1.63,0.39 2.43,1.34 2.43,2.85 v 30.08 c 0,2.82 -0.54,4.55 -1.64,5.21 -1.09,0.65 -3.23,0.97 -6.41,0.97 v 3.83 l 15.8,1.17 v -41.26 c 0,-1.51 0.7,-2.46 2.1,-2.85 1.41,-0.4 3.29,-0.59 5.63,-0.59 v -3.91 z m 4.69,67.53 c 0,1.61 0.61,3.03 1.84,4.26 1.23,1.22 2.62,1.83 4.18,1.83 1.05,0 2.05,-0.27 3.01,-0.82 0.97,-0.54 1.72,-1.3 2.27,-2.26 0.55,-0.96 0.82,-1.97 0.82,-3.01 0,-1.57 -0.61,-2.96 -1.83,-4.18 -1.23,-1.23 -2.65,-1.84 -4.27,-1.84 -1.56,0 -2.95,0.61 -4.18,1.84 -1.23,1.22 -1.84,2.61 -1.84,4.18"
         style="fill:#000000;fill-opacity:1;fill-rule:nonzero;stroke:none"
         id="path244" /><path
         d="m 1392.81,1240.79 v 3.91 c 2.51,0 4.57,0.19 6.18,0.59 1.62,0.39 2.42,1.34 2.42,2.85 v 30.08 c 0,1.94 -0.3,3.34 -0.89,4.23 -0.6,0.88 -1.45,1.43 -2.54,1.64 -1.1,0.21 -2.82,0.31 -5.17,0.31 v 3.83 l 15.96,1.17 v -10.7 c 1.46,3.12 3.63,5.69 6.53,7.69 2.89,2.01 6.03,3.01 9.41,3.01 5.12,0 8.95,-1.21 11.5,-3.63 2.56,-2.42 3.83,-6.16 3.83,-11.22 v -26.41 c 0,-1.51 0.81,-2.46 2.42,-2.85 1.63,-0.4 3.68,-0.59 6.19,-0.59 v -3.91 h -25.19 v 3.91 c 2.51,0 4.57,0.19 6.18,0.59 1.62,0.39 2.43,1.34 2.43,2.85 v 26.1 c 0,3.6 -0.52,6.55 -1.57,8.87 -1.04,2.32 -3.18,3.48 -6.41,3.48 -4.27,0 -7.78,-1.71 -10.52,-5.12 -2.73,-3.42 -4.1,-7.28 -4.1,-11.61 v -21.72 c 0,-1.51 0.81,-2.46 2.42,-2.85 1.62,-0.4 3.65,-0.59 6.11,-0.59 v -3.91 h -25.19"
         style="fill:#000000;fill-opacity:1;fill-rule:nonzero;stroke:none"
         id="path246" /><path
         d="m 1477.59,1239.54 c -4.32,0 -8.29,1.17 -11.88,3.51 -3.6,2.35 -6.39,5.43 -8.37,9.27 -1.98,3.82 -2.97,7.9 -2.97,12.23 0,4.43 1.08,8.56 3.24,12.39 2.17,3.83 5.12,6.86 8.84,9.1 3.73,2.25 7.84,3.36 12.32,3.36 2.66,0 5.2,-0.56 7.62,-1.68 2.43,-1.12 4.5,-2.69 6.22,-4.72 v 22.9 c 0,1.98 -0.29,3.4 -0.86,4.3 -0.57,0.88 -1.41,1.41 -2.5,1.59 -1.1,0.19 -2.82,0.28 -5.17,0.28 v 3.91 l 16.27,1.17 v -66.36 c 0,-1.93 0.3,-3.33 0.9,-4.22 0.6,-0.88 1.45,-1.42 2.54,-1.6 1.09,-0.18 2.82,-0.27 5.16,-0.27 v -3.91 l -16.65,-1.25 v 6.96 c -1.88,-2.2 -4.14,-3.9 -6.77,-5.13 -2.63,-1.22 -5.28,-1.83 -7.94,-1.83 z m -11.26,10.78 c 1.25,-2.39 2.94,-4.31 5.05,-5.74 2.11,-1.44 4.39,-2.15 6.84,-2.15 3.02,0 5.81,0.88 8.37,2.65 2.55,1.78 4.45,4.05 5.71,6.81 v 26.41 c -0.84,1.62 -1.92,3.06 -3.25,4.34 -1.33,1.28 -2.8,2.25 -4.42,2.93 -1.61,0.68 -3.34,1.02 -5.16,1.02 -3.86,0 -6.95,-1.08 -9.26,-3.24 -2.32,-2.17 -3.95,-4.94 -4.89,-8.33 -0.94,-3.39 -1.41,-6.9 -1.41,-10.55 0,-2.97 0.16,-5.55 0.47,-7.74 0.32,-2.19 0.96,-4.32 1.95,-6.41"
         style="fill:#000000;fill-opacity:1;fill-rule:nonzero;stroke:none"
         id="path248" /><path
         d="m 1515.23,1240.79 v 3.91 c 2.5,0 4.56,0.19 6.17,0.59 1.62,0.39 2.42,1.34 2.42,2.85 v 30.08 c 0,2.82 -0.54,4.55 -1.64,5.21 -1.09,0.65 -3.23,0.97 -6.41,0.97 v 3.83 l 15.8,1.17 v -41.26 c 0,-1.51 0.7,-2.46 2.11,-2.85 1.41,-0.4 3.28,-0.59 5.62,-0.59 v -3.91 z m 4.68,67.53 c 0,1.61 0.62,3.03 1.84,4.26 1.23,1.22 2.62,1.83 4.18,1.83 1.05,0 2.05,-0.27 3.02,-0.82 0.96,-0.54 1.72,-1.3 2.26,-2.26 0.55,-0.96 0.83,-1.97 0.83,-3.01 0,-1.57 -0.62,-2.96 -1.84,-4.18 -1.23,-1.23 -2.65,-1.84 -4.27,-1.84 -1.56,0 -2.95,0.61 -4.18,1.84 -1.22,1.22 -1.84,2.61 -1.84,4.18"
         style="fill:#000000;fill-opacity:1;fill-rule:nonzero;stroke:none"
         id="path250" /><path
         d="m 1545.26,1240.79 v 3.91 c 2.55,0 4.62,0.19 6.21,0.59 1.59,0.39 2.39,1.34 2.39,2.85 v 30.08 c 0,1.94 -0.29,3.34 -0.86,4.23 -0.57,0.88 -1.42,1.43 -2.54,1.64 -1.12,0.21 -2.86,0.31 -5.2,0.31 v 3.83 l 15.79,1.17 v -10.7 c 1.2,3.17 2.88,5.75 5.04,7.73 2.17,1.98 4.82,2.97 7.94,2.97 2.19,0 4.15,-0.63 5.87,-1.91 1.72,-1.28 2.58,-2.99 2.58,-5.12 0,-1.3 -0.47,-2.45 -1.41,-3.44 -0.94,-0.99 -2.11,-1.48 -3.52,-1.48 -1.35,0 -2.51,0.48 -3.48,1.44 -0.96,0.96 -1.44,2.12 -1.44,3.48 0,1.98 0.7,3.38 2.11,4.22 h -0.71 c -2.97,0 -5.39,-1.08 -7.27,-3.24 -1.87,-2.17 -3.21,-4.84 -3.99,-8.02 -0.78,-3.17 -1.17,-6.22 -1.17,-9.14 v -18.05 c 0,-2.3 3.57,-3.44 10.72,-3.44 v -3.91 h -27.06"
         style="fill:#000000;fill-opacity:1;fill-rule:nonzero;stroke:none"
         id="path252" /><path
         d="m 1613.01,1239.54 c -4.48,0 -8.6,1.17 -12.35,3.51 -3.76,2.35 -6.7,5.49 -8.84,9.42 -2.14,3.94 -3.21,8.09 -3.21,12.47 0,4.27 0.98,8.35 2.94,12.23 1.95,3.88 4.68,7.01 8.17,9.38 3.49,2.37 7.4,3.56 11.73,3.56 3.33,0 6.25,-0.56 8.75,-1.68 2.5,-1.12 4.57,-2.69 6.18,-4.69 1.62,-2.01 2.83,-4.38 3.64,-7.11 0.8,-2.74 1.21,-5.72 1.21,-8.95 0,-1 -0.37,-1.49 -1.09,-1.49 h -31.91 v -1.17 c 0,-6.1 1.23,-11.34 3.68,-15.72 2.45,-4.37 6.46,-6.56 12.04,-6.56 2.24,0 4.32,0.51 6.25,1.52 1.93,1.02 3.6,2.43 5.01,4.22 1.4,1.8 2.37,3.72 2.89,5.75 0.05,0.26 0.19,0.48 0.4,0.66 0.2,0.19 0.43,0.28 0.7,0.28 h 0.94 c 0.72,0 1.09,-0.47 1.09,-1.41 -1.04,-4.12 -3.28,-7.51 -6.72,-10.2 -3.45,-2.68 -7.28,-4.02 -11.5,-4.02 z m -14.62,29.39 h 25.1 c 0,2.76 -0.39,5.56 -1.17,8.4 -0.78,2.84 -2.07,5.19 -3.87,7.07 -1.8,1.88 -4.14,2.81 -7,2.81 -4.18,0 -7.39,-1.94 -9.66,-5.82 -2.27,-3.88 -3.4,-8.04 -3.4,-12.46"
         style="fill:#000000;fill-opacity:1;fill-rule:nonzero;stroke:none"
         id="path254" /><path
         d="m 1661.95,1239.54 c -4.49,0 -8.53,1.16 -12.13,3.47 -3.59,2.32 -6.43,5.41 -8.52,9.27 -2.09,3.85 -3.13,7.94 -3.13,12.27 0,4.32 1.03,8.48 3.09,12.46 2.06,3.99 4.9,7.17 8.53,9.54 3.62,2.37 7.67,3.56 12.16,3.56 4.27,0 8.18,-0.84 11.72,-2.51 3.54,-1.66 5.32,-4.42 5.32,-8.28 0,-1.46 -0.52,-2.71 -1.57,-3.75 -1.04,-1.04 -2.29,-1.56 -3.75,-1.56 -1.46,0 -2.7,0.52 -3.71,1.56 -1.02,1.04 -1.53,2.29 -1.53,3.75 0,1.31 0.41,2.42 1.21,3.36 0.81,0.94 1.84,1.53 3.09,1.8 -2.55,1.61 -6.12,2.42 -10.71,2.42 -3.49,0 -6.32,-1.16 -8.48,-3.47 -2.17,-2.32 -3.68,-5.2 -4.54,-8.64 -0.86,-3.44 -1.29,-6.85 -1.29,-10.24 0,-3.54 0.54,-6.97 1.6,-10.28 1.07,-3.31 2.78,-6.06 5.13,-8.25 2.34,-2.18 5.29,-3.28 8.83,-3.28 3.49,0 6.45,1.07 8.88,3.21 2.42,2.13 4.08,4.92 4.96,8.36 0,0.47 0.29,0.7 0.86,0.7 h 1.33 c 0.26,0 0.47,-0.1 0.63,-0.31 0.15,-0.21 0.23,-0.44 0.23,-0.7 v -0.32 c -1.09,-4.32 -3.28,-7.76 -6.57,-10.31 -3.28,-2.56 -7.16,-3.83 -11.64,-3.83"
         style="fill:#000000;fill-opacity:1;fill-rule:nonzero;stroke:none"
         id="path256" /><path
         d="m 1694.69,1254 v 30.4 h -9.15 v 2.81 c 4.8,0 8.33,2.24 10.59,6.73 2.27,4.48 3.41,9.33 3.41,14.53 h 3.12 v -20.24 h 15.56 v -3.83 h -15.56 v -30.17 c 0,-3.07 0.51,-5.76 1.53,-8.05 1.01,-2.29 2.85,-3.44 5.51,-3.44 2.5,0 4.32,1.21 5.44,3.64 1.12,2.42 1.68,5.04 1.68,7.85 v 6.48 h 3.21 V 1254 c 0,-2.3 -0.44,-4.56 -1.3,-6.8 -0.85,-2.25 -2.11,-4.08 -3.75,-5.51 -1.64,-1.44 -3.64,-2.15 -5.98,-2.15 -4.43,0 -7.93,1.31 -10.48,3.94 -2.56,2.63 -3.83,6.14 -3.83,10.52"
         style="fill:#000000;fill-opacity:1;fill-rule:nonzero;stroke:none"
         id="path258" /><g
         id="g260"
         transform="scale(1.00021,-0.99979)"><path
           d="m 1035.71,-1267.47 h 300.42"
           style="fill:none;stroke:#ff00ff;stroke-width:15.0101;stroke-linecap:butt;stroke-linejoin:bevel;stroke-miterlimit:10;stroke-dasharray:60.0402, 60.0402;stroke-dashoffset:0;stroke-opacity:1"
           id="path262" /></g><g
         id="g264"
         transform="scale(1.00021,-0.99979)"><path
           d="M 1005.67,-1185.8 V -1486 h 750.5 v 300.2 z"
           style="fill:none;stroke:#262626;stroke-width:5.00335;stroke-linecap:butt;stroke-linejoin:miter;stroke-miterlimit:10;stroke-dasharray:none;stroke-opacity:1"
           id="path266" /></g><path
         d="m 2277,385.184 h 1321.16 v 1180.54 H 2277 Z"
         style="fill:#ffffff;fill-opacity:1;fill-rule:nonzero;stroke:none"
         id="path268" /><g
         id="g270"
         transform="scale(1.00021,-0.99979)"><path
           d="M 2276.53,-385.264 V -1566.06"
           style="fill:none;stroke:#dfdfdf;stroke-width:5.00335;stroke-linecap:butt;stroke-linejoin:round;stroke-miterlimit:10;stroke-dasharray:none;stroke-opacity:1"
           id="path272" /></g><g
         id="g274"
         transform="scale(1.00021,-0.99979)"><path
           d="M 2540.7,-385.264 V -1566.06"
           style="fill:none;stroke:#dfdfdf;stroke-width:5.00335;stroke-linecap:butt;stroke-linejoin:round;stroke-miterlimit:10;stroke-dasharray:none;stroke-opacity:1"
           id="path276" /></g><g
         id="g278"
         transform="scale(1.00021,-0.99979)"><path
           d="M 2804.88,-385.264 V -1566.06"
           style="fill:none;stroke:#dfdfdf;stroke-width:5.00335;stroke-linecap:butt;stroke-linejoin:round;stroke-miterlimit:10;stroke-dasharray:none;stroke-opacity:1"
           id="path280" /></g><g
         id="g282"
         transform="scale(1.00021,-0.99979)"><path
           d="M 3069.06,-385.264 V -1566.06"
           style="fill:none;stroke:#dfdfdf;stroke-width:5.00335;stroke-linecap:butt;stroke-linejoin:round;stroke-miterlimit:10;stroke-dasharray:none;stroke-opacity:1"
           id="path284" /></g><g
         id="g286"
         transform="scale(1.00021,-0.99979)"><path
           d="M 3333.23,-385.264 V -1566.06"
           style="fill:none;stroke:#dfdfdf;stroke-width:5.00335;stroke-linecap:butt;stroke-linejoin:round;stroke-miterlimit:10;stroke-dasharray:none;stroke-opacity:1"
           id="path288" /></g><g
         id="g290"
         transform="scale(1.00021,-0.99979)"><path
           d="M 3597.41,-385.264 V -1566.06"
           style="fill:none;stroke:#dfdfdf;stroke-width:5.00335;stroke-linecap:butt;stroke-linejoin:round;stroke-miterlimit:10;stroke-dasharray:none;stroke-opacity:1"
           id="path292" /></g><g
         id="g294"
         transform="scale(1.00021,-0.99979)"><path
           d="M 3597.41,-385.264 H 2276.53"
           style="fill:none;stroke:#dfdfdf;stroke-width:5.00335;stroke-linecap:butt;stroke-linejoin:round;stroke-miterlimit:10;stroke-dasharray:none;stroke-opacity:1"
           id="path296" /></g><g
         id="g298"
         transform="scale(1.00021,-0.99979)"><path
           d="M 3597.41,-680.459 H 2276.53"
           style="fill:none;stroke:#dfdfdf;stroke-width:5.00335;stroke-linecap:butt;stroke-linejoin:round;stroke-miterlimit:10;stroke-dasharray:none;stroke-opacity:1"
           id="path300" /></g><g
         id="g302"
         transform="scale(1.00021,-0.99979)"><path
           d="M 3597.41,-975.658 H 2276.53"
           style="fill:none;stroke:#dfdfdf;stroke-width:5.00335;stroke-linecap:butt;stroke-linejoin:round;stroke-miterlimit:10;stroke-dasharray:none;stroke-opacity:1"
           id="path304" /></g><g
         id="g306"
         transform="scale(1.00021,-0.99979)"><path
           d="M 3597.41,-1270.86 H 2276.53"
           style="fill:none;stroke:#dfdfdf;stroke-width:5.00335;stroke-linecap:butt;stroke-linejoin:round;stroke-miterlimit:10;stroke-dasharray:none;stroke-opacity:1"
           id="path308" /></g><g
         id="g310"
         transform="scale(1.00021,-0.99979)"><path
           d="M 3597.41,-1566.06 H 2276.53"
           style="fill:none;stroke:#dfdfdf;stroke-width:5.00335;stroke-linecap:butt;stroke-linejoin:round;stroke-miterlimit:10;stroke-dasharray:none;stroke-opacity:1"
           id="path312" /></g><g
         id="g314"
         transform="scale(1.00021,-0.99979)"><path
           d="M 2276.53,-385.264 H 3597.41"
           style="fill:none;stroke:#262626;stroke-width:5.00335;stroke-linecap:square;stroke-linejoin:round;stroke-miterlimit:10;stroke-dasharray:none;stroke-opacity:1"
           id="path316" /></g><g
         id="g318"
         transform="scale(1.00021,-0.99979)"><path
           d="M 2276.53,-1566.06 H 3597.41"
           style="fill:none;stroke:#262626;stroke-width:5.00335;stroke-linecap:square;stroke-linejoin:round;stroke-miterlimit:10;stroke-dasharray:none;stroke-opacity:1"
           id="path320" /></g><g
         id="g322"
         transform="scale(1.00021,-0.99979)"><path
           d="m 2276.53,-385.264 v -13.21"
           style="fill:none;stroke:#262626;stroke-width:5.00335;stroke-linecap:square;stroke-linejoin:round;stroke-miterlimit:10;stroke-dasharray:none;stroke-opacity:1"
           id="path324" /></g><g
         id="g326"
         transform="scale(1.00021,-0.99979)"><path
           d="m 2540.7,-385.264 v -13.21"
           style="fill:none;stroke:#262626;stroke-width:5.00335;stroke-linecap:square;stroke-linejoin:round;stroke-miterlimit:10;stroke-dasharray:none;stroke-opacity:1"
           id="path328" /></g><g
         id="g330"
         transform="scale(1.00021,-0.99979)"><path
           d="m 2804.88,-385.264 v -13.21"
           style="fill:none;stroke:#262626;stroke-width:5.00335;stroke-linecap:square;stroke-linejoin:round;stroke-miterlimit:10;stroke-dasharray:none;stroke-opacity:1"
           id="path332" /></g><g
         id="g334"
         transform="scale(1.00021,-0.99979)"><path
           d="m 3069.06,-385.264 v -13.21"
           style="fill:none;stroke:#262626;stroke-width:5.00335;stroke-linecap:square;stroke-linejoin:round;stroke-miterlimit:10;stroke-dasharray:none;stroke-opacity:1"
           id="path336" /></g><g
         id="g338"
         transform="scale(1.00021,-0.99979)"><path
           d="m 3333.23,-385.264 v -13.21"
           style="fill:none;stroke:#262626;stroke-width:5.00335;stroke-linecap:square;stroke-linejoin:round;stroke-miterlimit:10;stroke-dasharray:none;stroke-opacity:1"
           id="path340" /></g><g
         id="g342"
         transform="scale(1.00021,-0.99979)"><path
           d="m 3597.41,-385.264 v -13.21"
           style="fill:none;stroke:#262626;stroke-width:5.00335;stroke-linecap:square;stroke-linejoin:round;stroke-miterlimit:10;stroke-dasharray:none;stroke-opacity:1"
           id="path344" /></g><g
         id="g346"
         transform="scale(1.00021,-0.99979)"><path
           d="m 2276.53,-1566.06 v 13.21"
           style="fill:none;stroke:#262626;stroke-width:5.00335;stroke-linecap:square;stroke-linejoin:round;stroke-miterlimit:10;stroke-dasharray:none;stroke-opacity:1"
           id="path348" /></g><g
         id="g350"
         transform="scale(1.00021,-0.99979)"><path
           d="m 2540.7,-1566.06 v 13.21"
           style="fill:none;stroke:#262626;stroke-width:5.00335;stroke-linecap:square;stroke-linejoin:round;stroke-miterlimit:10;stroke-dasharray:none;stroke-opacity:1"
           id="path352" /></g><g
         id="g354"
         transform="scale(1.00021,-0.99979)"><path
           d="m 2804.88,-1566.06 v 13.21"
           style="fill:none;stroke:#262626;stroke-width:5.00335;stroke-linecap:square;stroke-linejoin:round;stroke-miterlimit:10;stroke-dasharray:none;stroke-opacity:1"
           id="path356" /></g><g
         id="g358"
         transform="scale(1.00021,-0.99979)"><path
           d="m 3069.06,-1566.06 v 13.21"
           style="fill:none;stroke:#262626;stroke-width:5.00335;stroke-linecap:square;stroke-linejoin:round;stroke-miterlimit:10;stroke-dasharray:none;stroke-opacity:1"
           id="path360" /></g><g
         id="g362"
         transform="scale(1.00021,-0.99979)"><path
           d="m 3333.23,-1566.06 v 13.21"
           style="fill:none;stroke:#262626;stroke-width:5.00335;stroke-linecap:square;stroke-linejoin:round;stroke-miterlimit:10;stroke-dasharray:none;stroke-opacity:1"
           id="path364" /></g><g
         id="g366"
         transform="scale(1.00021,-0.99979)"><path
           d="m 3597.41,-1566.06 v 13.21"
           style="fill:none;stroke:#262626;stroke-width:5.00335;stroke-linecap:square;stroke-linejoin:round;stroke-miterlimit:10;stroke-dasharray:none;stroke-opacity:1"
           id="path368" /></g><g
         id="g370"
         transform="scale(10)"><text
           transform="matrix(1,0,0,-0.99958018,220.945,26.2121)"
           style="font-variant:normal;font-weight:normal;font-size:9.00792px;font-family:Helvetica;-inkscape-font-specification:Helvetica;writing-mode:lr-tb;fill:#262626;fill-opacity:1;fill-rule:nonzero;stroke:none"
           id="text374"><tspan
             x="0 2.9996378 8.0080423 26.423027 29.422665 34.431068 52.846413 55.84605 60.854458 79.269798 82.26944 87.277847 108.19523 111.19487 136.11987"
             y="0"
             sodipodi:role="line"
             id="tspan372">-25-20-15-10-50</tspan></text></g><g
         id="g376"
         transform="scale(1.00021,-0.99979)"><path
           d="M 2276.53,-385.264 V -1566.06"
           style="fill:none;stroke:#262626;stroke-width:5.00335;stroke-linecap:square;stroke-linejoin:round;stroke-miterlimit:10;stroke-dasharray:none;stroke-opacity:1"
           id="path378" /></g><g
         id="g380"
         transform="scale(1.00021,-0.99979)"><path
           d="M 3597.41,-385.264 V -1566.06"
           style="fill:none;stroke:#262626;stroke-width:5.00335;stroke-linecap:square;stroke-linejoin:round;stroke-miterlimit:10;stroke-dasharray:none;stroke-opacity:1"
           id="path382" /></g><g
         id="g384"
         transform="scale(1.00021,-0.99979)"><path
           d="m 2276.53,-385.264 h 13.2"
           style="fill:none;stroke:#262626;stroke-width:5.00335;stroke-linecap:square;stroke-linejoin:round;stroke-miterlimit:10;stroke-dasharray:none;stroke-opacity:1"
           id="path386" /></g><g
         id="g388"
         transform="scale(1.00021,-0.99979)"><path
           d="m 2276.53,-680.459 h 13.2"
           style="fill:none;stroke:#262626;stroke-width:5.00335;stroke-linecap:square;stroke-linejoin:round;stroke-miterlimit:10;stroke-dasharray:none;stroke-opacity:1"
           id="path390" /></g><g
         id="g392"
         transform="scale(1.00021,-0.99979)"><path
           d="m 2276.53,-975.658 h 13.2"
           style="fill:none;stroke:#262626;stroke-width:5.00335;stroke-linecap:square;stroke-linejoin:round;stroke-miterlimit:10;stroke-dasharray:none;stroke-opacity:1"
           id="path394" /></g><g
         id="g396"
         transform="scale(1.00021,-0.99979)"><path
           d="m 2276.53,-1270.86 h 13.2"
           style="fill:none;stroke:#262626;stroke-width:5.00335;stroke-linecap:square;stroke-linejoin:round;stroke-miterlimit:10;stroke-dasharray:none;stroke-opacity:1"
           id="path398" /></g><g
         id="g400"
         transform="scale(1.00021,-0.99979)"><path
           d="m 2276.53,-1566.06 h 13.2"
           style="fill:none;stroke:#262626;stroke-width:5.00335;stroke-linecap:square;stroke-linejoin:round;stroke-miterlimit:10;stroke-dasharray:none;stroke-opacity:1"
           id="path402" /></g><g
         id="g404"
         transform="scale(1.00021,-0.99979)"><path
           d="M 3597.41,-385.264 H 3584.2"
           style="fill:none;stroke:#262626;stroke-width:5.00335;stroke-linecap:square;stroke-linejoin:round;stroke-miterlimit:10;stroke-dasharray:none;stroke-opacity:1"
           id="path406" /></g><g
         id="g408"
         transform="scale(1.00021,-0.99979)"><path
           d="M 3597.41,-680.459 H 3584.2"
           style="fill:none;stroke:#262626;stroke-width:5.00335;stroke-linecap:square;stroke-linejoin:round;stroke-miterlimit:10;stroke-dasharray:none;stroke-opacity:1"
           id="path410" /></g><g
         id="g412"
         transform="scale(1.00021,-0.99979)"><path
           d="M 3597.41,-975.658 H 3584.2"
           style="fill:none;stroke:#262626;stroke-width:5.00335;stroke-linecap:square;stroke-linejoin:round;stroke-miterlimit:10;stroke-dasharray:none;stroke-opacity:1"
           id="path414" /></g><g
         id="g416"
         transform="scale(1.00021,-0.99979)"><path
           d="M 3597.41,-1270.86 H 3584.2"
           style="fill:none;stroke:#262626;stroke-width:5.00335;stroke-linecap:square;stroke-linejoin:round;stroke-miterlimit:10;stroke-dasharray:none;stroke-opacity:1"
           id="path418" /></g><g
         id="g420"
         transform="scale(1.00021,-0.99979)"><path
           d="M 3597.41,-1566.06 H 3584.2"
           style="fill:none;stroke:#262626;stroke-width:5.00335;stroke-linecap:square;stroke-linejoin:round;stroke-miterlimit:10;stroke-dasharray:none;stroke-opacity:1"
           id="path422" /></g><g
         id="g424"
         transform="scale(10)"><text
           transform="matrix(1,0,0,-0.99958018,219.394,34.766)"
           style="font-variant:normal;font-weight:normal;font-size:9.00792px;font-family:Helvetica;-inkscape-font-specification:Helvetica;writing-mode:lr-tb;fill:#262626;fill-opacity:1;fill-rule:nonzero;stroke:none"
           id="text436"><tspan
             x="0"
             y="0"
             id="tspan426">0</tspan><tspan
             x="-12.510952 -7.5025477 -4.9983459 0.01005882"
             y="-29.526096"
             sodipodi:role="line"
             id="tspan428">0.05</tspan><tspan
             x="-7.5066514 -2.4982469 0.0059552598"
             y="-59.052193"
             sodipodi:role="line"
             id="tspan430">0.1</tspan><tspan
             x="-12.510952 -7.5025477 -4.9983459 0.01005882"
             y="-88.578285"
             sodipodi:role="line"
             id="tspan432">0.15</tspan><tspan
             x="-7.5066514 -2.4982469 0.0059552598"
             y="-118.10438"
             sodipodi:role="line"
             id="tspan434">0.2</tspan></text></g><path
         d="m 2009.18,665.844 h -3.91 c 0,2.551 -0.2,4.625 -0.59,6.215 -0.39,1.589 -1.34,2.386 -2.86,2.386 h -30.1 c -1.93,0 -3.34,-0.289 -4.22,-0.863 -0.89,-0.57 -1.44,-1.418 -1.64,-2.539 -0.22,-1.121 -0.32,-2.855 -0.32,-5.199 h -3.83 l -1.17,15.789 h 10.71 c -3.18,1.195 -5.76,2.879 -7.74,5.043 -1.98,2.16 -2.97,4.804 -2.97,7.933 0,2.188 0.64,4.141 1.91,5.864 1.28,1.715 2.99,2.574 5.12,2.574 1.31,0 2.45,-0.469 3.45,-1.406 0.99,-0.938 1.48,-2.11 1.48,-3.516 0,-1.355 -0.48,-2.512 -1.45,-3.477 -0.96,-0.964 -2.12,-1.445 -3.48,-1.445 -1.98,0 -3.38,0.703 -4.21,2.106 v -0.7 c 0,-2.972 1.07,-5.394 3.24,-7.269 2.16,-1.879 4.83,-3.207 8.01,-3.988 3.18,-0.782 6.23,-1.176 9.15,-1.176 h 18.06 c 2.3,0 3.45,3.57 3.45,10.711 h 3.91 v -27.043"
         style="fill:#262626;fill-opacity:1;fill-rule:nonzero;stroke:none"
         id="path438" /><path
         d="m 2010.43,733.566 c 0,-4.48 -1.18,-8.593 -3.52,-12.347 -2.35,-3.75 -5.49,-6.696 -9.43,-8.832 -3.93,-2.137 -8.09,-3.207 -12.47,-3.207 -4.27,0 -8.35,0.976 -12.24,2.929 -3.88,1.957 -7.01,4.68 -9.38,8.172 -2.37,3.492 -3.55,7.399 -3.55,11.723 0,3.336 0.55,6.254 1.67,8.754 1.12,2.504 2.69,4.558 4.7,6.176 2,1.617 4.38,2.828 7.11,3.636 2.74,0.805 5.72,1.211 8.96,1.211 0.99,0 1.48,-0.367 1.48,-1.097 v -31.891 h 1.17 c 6.1,0 11.34,1.227 15.72,3.68 4.38,2.445 6.57,6.457 6.57,12.035 0,2.238 -0.51,4.324 -1.52,6.25 -1.02,1.93 -2.43,3.597 -4.23,5.004 -1.79,1.406 -3.71,2.371 -5.75,2.89 -0.26,0.055 -0.48,0.184 -0.66,0.391 -0.18,0.211 -0.27,0.445 -0.27,0.707 v 0.934 c 0,0.73 0.46,1.097 1.4,1.097 4.12,-1.043 7.52,-3.285 10.21,-6.726 2.68,-3.438 4.03,-7.266 4.03,-11.489 z m -29.41,-14.613 v 25.086 c -2.76,0 -5.56,-0.387 -8.4,-1.168 -2.84,-0.785 -5.2,-2.074 -7.08,-3.871 -1.88,-1.801 -2.81,-4.129 -2.81,-6.996 0,-4.168 1.94,-7.387 5.82,-9.652 3.89,-2.266 8.04,-3.399 12.47,-3.399"
         style="fill:#262626;fill-opacity:1;fill-rule:nonzero;stroke:none"
         id="path440" /><path
         d="m 2009.18,758.406 h -3.91 c 0,2.504 -0.2,4.559 -0.59,6.176 -0.39,1.613 -1.34,2.418 -2.86,2.418 h -57.78 c -1.98,0 -3.41,-0.285 -4.3,-0.855 -0.89,-0.571 -1.42,-1.418 -1.6,-2.54 -0.19,-1.121 -0.28,-2.855 -0.28,-5.199 h -3.91 l -1.17,16.332 h 69.04 c 1.52,0 2.47,0.809 2.86,2.43 0.39,1.613 0.59,3.668 0.59,6.172 h 3.91 v -24.934"
         style="fill:#262626;fill-opacity:1;fill-rule:nonzero;stroke:none"
         id="path442" /><path
         d="m 2003.07,794.84 c -1.61,0 -3.02,0.613 -4.22,1.836 -1.2,1.222 -1.8,2.64 -1.8,4.258 0,0.988 0.28,1.964 0.83,2.929 0.54,0.965 1.3,1.719 2.26,2.266 0.97,0.551 1.94,0.824 2.93,0.824 1.62,0 3.04,-0.586 4.27,-1.758 1.22,-1.175 1.84,-2.597 1.84,-4.261 0,-1.618 -0.62,-3.036 -1.84,-4.258 -1.23,-1.223 -2.65,-1.836 -4.27,-1.836"
         style="fill:#262626;fill-opacity:1;fill-rule:nonzero;stroke:none"
         id="path444" /><path
         d="m 2010.43,892.527 c 0,-4.48 -1.18,-8.597 -3.52,-12.347 -2.35,-3.754 -5.49,-6.696 -9.43,-8.832 -3.93,-2.137 -8.09,-3.203 -12.47,-3.203 -4.27,0 -8.35,0.976 -12.24,2.929 -3.88,1.953 -7.01,4.676 -9.38,8.168 -2.37,3.492 -3.55,7.403 -3.55,11.727 0,3.336 0.55,6.254 1.67,8.754 1.12,2.5 2.69,4.558 4.7,6.172 2,1.613 4.38,2.828 7.11,3.636 2.74,0.809 5.72,1.211 8.96,1.211 0.99,0 1.48,-0.363 1.48,-1.094 v -31.89 h 1.17 c 6.1,0 11.34,1.222 15.72,3.672 4.38,2.449 6.57,6.465 6.57,12.039 0,2.242 -0.51,4.324 -1.52,6.254 -1.02,1.925 -2.43,3.593 -4.23,5.004 -1.79,1.406 -3.71,2.371 -5.75,2.89 -0.26,0.051 -0.48,0.18 -0.66,0.391 -0.18,0.207 -0.27,0.441 -0.27,0.703 v 0.937 c 0,0.731 0.46,1.094 1.4,1.094 4.12,-1.043 7.52,-3.285 10.21,-6.722 2.68,-3.438 4.03,-7.27 4.03,-11.493 z m -29.41,-14.613 v 25.09 c -2.76,0 -5.56,-0.391 -8.4,-1.172 -2.84,-0.781 -5.2,-2.074 -7.08,-3.871 -1.88,-1.797 -2.81,-4.129 -2.81,-6.992 0,-4.168 1.94,-7.387 5.82,-9.656 3.89,-2.266 8.04,-3.399 12.47,-3.399"
         style="fill:#262626;fill-opacity:1;fill-rule:nonzero;stroke:none"
         id="path446" /><path
         d="m 2009.18,916.82 h -3.91 c 0,2.555 -0.2,4.625 -0.59,6.211 -0.39,1.594 -1.34,2.387 -2.86,2.387 h -30.1 c -1.93,0 -3.34,-0.285 -4.22,-0.859 -0.89,-0.575 -1.44,-1.422 -1.64,-2.539 -0.22,-1.122 -0.32,-2.856 -0.32,-5.2 h -3.83 l -1.17,15.789 h 10.71 c -3.18,1.2 -5.76,2.879 -7.74,5.039 -1.98,2.165 -2.97,4.809 -2.97,7.934 0,2.188 0.64,4.145 1.91,5.863 1.28,1.723 2.99,2.582 5.12,2.582 1.31,0 2.45,-0.468 3.45,-1.41 0.99,-0.937 1.48,-2.109 1.48,-3.515 0,-1.356 -0.48,-2.516 -1.45,-3.477 -0.96,-0.965 -2.12,-1.445 -3.48,-1.445 -1.98,0 -3.38,0.703 -4.21,2.109 v -0.707 c 0,-2.969 1.07,-5.394 3.24,-7.266 2.16,-1.878 4.83,-3.207 8.01,-3.988 3.18,-0.781 6.23,-1.172 9.15,-1.172 h 18.06 c 2.3,0 3.45,3.571 3.45,10.707 h 3.91 V 916.82"
         style="fill:#262626;fill-opacity:1;fill-rule:nonzero;stroke:none"
         id="path448" /><path
         d="m 2009.18,959.926 h -3.91 c 0,2.551 -0.2,4.621 -0.59,6.211 -0.39,1.593 -1.34,2.386 -2.86,2.386 h -30.1 c -1.93,0 -3.34,-0.285 -4.22,-0.859 -0.89,-0.574 -1.44,-1.422 -1.64,-2.543 -0.22,-1.117 -0.32,-2.851 -0.32,-5.195 h -3.83 l -1.17,15.785 h 10.71 c -3.18,1.199 -5.76,2.879 -7.74,5.043 -1.98,2.16 -2.97,4.805 -2.97,7.934 0,2.187 0.64,4.144 1.91,5.863 1.28,1.719 2.99,2.578 5.12,2.578 1.31,0 2.45,-0.469 3.45,-1.406 0.99,-0.938 1.48,-2.11 1.48,-3.52 0,-1.351 -0.48,-2.512 -1.45,-3.476 -0.96,-0.961 -2.12,-1.446 -3.48,-1.446 -1.98,0 -3.38,0.703 -4.21,2.11 v -0.703 c 0,-2.969 1.07,-5.395 3.24,-7.266 2.16,-1.879 4.83,-3.207 8.01,-3.988 3.18,-0.786 6.23,-1.176 9.15,-1.176 h 18.06 c 2.3,0 3.45,3.57 3.45,10.711 h 3.91 v -27.043"
         style="fill:#262626;fill-opacity:1;fill-rule:nonzero;stroke:none"
         id="path450" /><path
         d="m 2010.43,1027.73 c 0,-4.43 -1.13,-8.52 -3.37,-12.27 -2.24,-3.76 -5.25,-6.73 -9.03,-8.91 -3.78,-2.19 -7.88,-3.29 -12.32,-3.29 -3.33,0 -6.57,0.6 -9.69,1.8 -3.13,1.2 -5.92,2.92 -8.37,5.16 -2.45,2.24 -4.36,4.84 -5.74,7.81 -1.38,2.97 -2.07,6.2 -2.07,9.7 0,4.53 1.18,8.65 3.55,12.35 2.37,3.69 5.57,6.62 9.58,8.75 4.01,2.13 8.26,3.2 12.74,3.2 4.44,0 8.54,-1.08 12.32,-3.24 3.78,-2.16 6.79,-5.12 9.03,-8.87 2.24,-3.76 3.37,-7.82 3.37,-12.19 z m -3.21,0 c 0,5.89 -2.14,9.81 -6.41,11.76 -4.28,1.95 -9.72,2.93 -16.35,2.93 -3.64,0 -6.68,-0.2 -9.1,-0.59 -2.43,-0.39 -4.63,-1.24 -6.61,-2.54 -1.2,-0.83 -2.26,-1.89 -3.17,-3.16 -0.91,-1.28 -1.62,-2.62 -2.11,-4.03 -0.49,-1.4 -0.74,-2.86 -0.74,-4.37 0,-2.3 0.52,-4.47 1.56,-6.53 1.05,-2.06 2.53,-3.77 4.46,-5.12 2.08,-1.35 4.36,-2.23 6.84,-2.62 2.48,-0.39 5.43,-0.58 8.87,-0.58 4.12,0 7.83,0.36 11.11,1.09 3.28,0.73 6.05,2.17 8.29,4.34 2.24,2.16 3.36,5.3 3.36,9.42"
         style="fill:#262626;fill-opacity:1;fill-rule:nonzero;stroke:none"
         id="path452" /><path
         d="m 2009.18,1058.05 h -3.91 c 0,2.56 -0.2,4.63 -0.59,6.22 -0.39,1.59 -1.34,2.38 -2.86,2.38 h -30.1 c -1.93,0 -3.34,-0.29 -4.22,-0.86 -0.89,-0.57 -1.44,-1.41 -1.64,-2.54 -0.22,-1.12 -0.32,-2.85 -0.32,-5.2 h -3.83 l -1.17,15.79 h 10.71 c -3.18,1.2 -5.76,2.88 -7.74,5.05 -1.98,2.16 -2.97,4.8 -2.97,7.93 0,2.19 0.64,4.14 1.91,5.86 1.28,1.72 2.99,2.58 5.12,2.58 1.31,0 2.45,-0.47 3.45,-1.41 0.99,-0.94 1.48,-2.11 1.48,-3.51 0,-1.36 -0.48,-2.52 -1.45,-3.49 -0.96,-0.96 -2.12,-1.44 -3.48,-1.44 -1.98,0 -3.38,0.7 -4.21,2.11 v -0.7 c 0,-2.97 1.07,-5.4 3.24,-7.27 2.16,-1.88 4.83,-3.21 8.01,-3.99 3.18,-0.78 6.23,-1.17 9.15,-1.17 h 18.06 c 2.3,0 3.45,3.57 3.45,10.71 h 3.91 v -27.05"
         style="fill:#262626;fill-opacity:1;fill-rule:nonzero;stroke:none"
         id="path454" /><path
         d="m 2036.7,1148 h -110.1 v 15.08 h 4.38 v -10.63 h 101.34 v 10.63 h 4.38 V 1148"
         style="fill:#262626;fill-opacity:1;fill-rule:nonzero;stroke:none"
         id="path456" /><path
         d="m 2013.16,1180.92 c -0.41,0 -0.8,0.1 -1.17,0.31 l -74.28,49.86 c 2.5,-4.38 3.75,-9.22 3.75,-14.53 0,-5.74 -1.49,-11.23 -4.46,-16.49 3.49,1.45 7.4,2.18 11.73,2.18 2.4,0 4.86,-0.27 7.39,-0.82 2.52,-0.55 4.9,-1.39 7.11,-2.54 2.22,-1.14 4.06,-2.63 5.52,-4.45 1.46,-1.83 2.19,-3.96 2.19,-6.41 0,-3.44 -1.15,-6.39 -3.44,-8.83 -2.3,-2.45 -5.16,-4.3 -8.61,-5.55 -3.43,-1.25 -6.82,-1.88 -10.16,-1.88 -3.23,0 -6.58,0.63 -10.05,1.88 -3.47,1.25 -6.34,3.1 -8.64,5.55 -2.29,2.44 -3.44,5.39 -3.44,8.83 0,2.76 1.1,5.26 3.28,7.51 5.79,5.88 8.69,12.89 8.69,21.02 0,4.32 -0.96,8.36 -2.86,12.11 -1.9,3.76 -4.65,6.83 -8.25,9.22 -0.57,0.37 -0.86,0.94 -0.86,1.72 0,0.68 0.2,1.23 0.59,1.64 0.39,0.42 0.92,0.63 1.6,0.63 0.42,0 0.78,-0.13 1.09,-0.39 l 84.77,-56.75 c 0.47,-0.31 0.7,-0.85 0.7,-1.64 0,-0.62 -0.23,-1.14 -0.7,-1.56 -0.47,-0.41 -0.97,-0.62 -1.49,-0.62 z m -45.03,7.11 c 0,3.65 -2.17,6.39 -6.5,8.24 -4.33,1.86 -8.63,2.78 -12.9,2.78 -2.4,0 -5.12,-0.38 -8.17,-1.14 -3.05,-0.75 -5.67,-1.95 -7.86,-3.59 -2.19,-1.64 -3.29,-3.74 -3.29,-6.29 0,-3.65 2.04,-6.06 6.11,-7.23 4.06,-1.17 8.52,-1.76 13.37,-1.76 4.58,0 8.93,0.61 13.05,1.84 4.12,1.22 6.19,3.6 6.19,7.15 z m 47.22,48.77 c 0,-3.44 -1.15,-6.4 -3.44,-8.87 -2.29,-2.48 -5.18,-4.32 -8.64,-5.55 -3.47,-1.22 -6.87,-1.83 -10.2,-1.83 -3.24,0 -6.59,0.61 -10.05,1.83 -3.47,1.23 -6.35,3.07 -8.64,5.55 -2.3,2.47 -3.44,5.43 -3.44,8.87 0,3.18 1.21,5.85 3.63,8.01 2.43,2.17 5.34,3.73 8.76,4.69 3.42,0.97 6.66,1.45 9.74,1.45 2.39,0 4.84,-0.27 7.35,-0.82 2.5,-0.55 4.88,-1.38 7.15,-2.5 2.27,-1.12 4.13,-2.59 5.59,-4.42 1.46,-1.82 2.19,-3.96 2.19,-6.41 z m -2.89,0 c 0,2.45 -1.11,4.52 -3.33,6.22 -2.21,1.69 -4.84,2.91 -7.89,3.67 -3.05,0.76 -5.78,1.13 -8.17,1.13 -4.23,0 -8.49,-0.94 -12.79,-2.81 -4.3,-1.88 -6.45,-4.61 -6.45,-8.21 0,-3.65 2.03,-6.07 6.1,-7.27 4.07,-1.2 8.5,-1.8 13.29,-1.8 4.64,0 9.01,0.61 13.1,1.84 4.09,1.22 6.14,3.63 6.14,7.23"
         style="fill:#262626;fill-opacity:1;fill-rule:nonzero;stroke:none"
         id="path458" /><path
         d="m 2036.7,1259.73 h -4.38 v 10.71 h -101.34 v -10.71 h -4.38 v 15.09 h 110.1 v -15.09"
         style="fill:#262626;fill-opacity:1;fill-rule:nonzero;stroke:none"
         id="path460" /><g
         id="g462"
         transform="scale(1.00021,-0.99979)"><path
           d="m 2276.53,-1360.66 52.83,56.31 52.84,54.33 52.83,52.44 52.83,50.65 52.84,48.95 52.84,47.34 52.83,45.8 52.84,44.338 52.83,42.938 52.84,41.607 52.83,40.336 52.84,39.122 52.84,37.965 52.83,36.855 52.84,35.793 52.83,34.773 52.83,33.804 52.84,32.866 52.84,31.979 52.83,31.108 52.84,30.288 52.83,29.495 52.84,28.728 52.83,27.998"
           style="fill:none;stroke:#0000ff;stroke-width:15.0101;stroke-linecap:butt;stroke-linejoin:round;stroke-miterlimit:10;stroke-dasharray:none;stroke-opacity:1"
           id="path464" /></g></g></g></svg>
